# xmcd
# Copyright (C) 1995-1998 Ti Kan
#
# Track frame offsets:
#       150
#       13646
#       31395
#       45456
#       65851
#       81321
#
# Disc length: 1248 seconds
#
# Revision: 0
# Processed by: cddbd v1.5.2PL0 Copyright (c) Steve Scherf et al.
# Submitted via: CD-Import v1.0
#
DISCID=4904de06
DTITLE=Caprice - Still Water
DYEAR=2010
DGENRE=
TTITLE0=Finding Myself
TTITLE1=Still Water
TTITLE2=Listen To The Silence
TTITLE3=Seasons
TTITLE4=Like An Insect In A Candle
TTITLE5=Wonderful Sadness
EXTD=
EXTT0=
EXTT1=
EXTT2=
EXTT3=
EXTT4=
EXTT5=
PLAYORDER=
